<svg xmlns="http://www.w3.org/2000/svg" xmlns:xlink="http://www.w3.org/1999/xlink" viewBox="0 0 1024 1024"><defs><style>.cls-1{isolation:isolate;}.cls-2{fill:url(#linear-gradient);}.cls-3{fill:url(#linear-gradient-2);}.cls-4{fill:url(#linear-gradient-3);}.cls-5{fill:url(#linear-gradient-4);}.cls-6,.cls-7{opacity:0.75;mix-blend-mode:screen;}.cls-6{fill:url(#linear-gradient-5);}.cls-7{fill:url(#linear-gradient-6);}</style><linearGradient id="linear-gradient" x1="870.9" y1="318.64" x2="379.87" y2="458.33" gradientUnits="userSpaceOnUse"><stop offset="0" stop-color="#4e469b"/><stop offset="1" stop-color="#f393bd"/></linearGradient><linearGradient id="linear-gradient-2" x1="-345.48" y1="802.21" x2="961.96" y2="362.06" xlink:href="#linear-gradient"/><linearGradient id="linear-gradient-3" x1="358.31" y1="209.46" x2="537.71" y2="814.93" xlink:href="#linear-gradient"/><linearGradient id="linear-gradient-4" x1="238.03" y1="915.97" x2="904.84" y2="721.01" xlink:href="#linear-gradient"/><linearGradient id="linear-gradient-5" x1="215.6" y1="839.27" x2="882.42" y2="644.32" gradientUnits="userSpaceOnUse"><stop offset="0" stop-color="#4e469b" stop-opacity="0"/><stop offset="1" stop-color="#f393bd"/></linearGradient><linearGradient id="linear-gradient-6" x1="134.56" y1="209.68" x2="1024" y2="209.68" xlink:href="#linear-gradient-5"/></defs><g class="cls-1"><g id="Canary"><g id="Canary-2" data-name="Canary"><g id="Shape"><path id="Jut" class="cls-2" d="M943.08,341.29c-17.73,55.34-63.72,101.57-129.31,114.27l-.77.22L385.75,536.84a209.24,209.24,0,0,1-3.83-40.15c0-100.16,71.5-189.48,174.43-209l128-24.31,235.08-44.6Z"/><path id="Base" class="cls-3" d="M975.79,727.27l7.92,3.71C860.8,988.13,527.89,1127.59,204.31,932a332.61,332.61,0,0,1-111-109.75C-155.77,418.46,131,0,516.6,0,768.77,0,978.67,179,1024,415.73l-211,40c-38-198.17-273.12-326.89-495.42-178.58A138,138,0,0,0,280.25,314c-164.39,240.76,5.8,497.05,236.35,497.05a302.26,302.26,0,0,0,175.12-55.46C775.18,696.59,883.12,683.78,975.79,727.27Z"/><path id="Middle" class="cls-4" d="M983.71,731c-123,257.19-455.83,396.63-779.5,201A333.62,333.62,0,0,1,93.29,822.24C47.63,748.24,20,673.79,7.77,601.52c55.3-221.49,256-386,496-388.39-60,2.5-123.62,22.25-186.25,64.13a137,137,0,0,0-37.23,36.68C115.85,554.75,286,811.07,516.6,811.07a302,302,0,0,0,175.08-55.46c83.55-59,191.4-71.84,284.14-28.32Z"/><path id="Lower" class="cls-5" d="M975.82,727.29c-92.74-43.52-200.59-30.71-284.14,28.32a297.8,297.8,0,0,1-29,17.92C585,825.94,488.22,861.6,373.48,871.79a337.88,337.88,0,0,1-155-22.81C156.8,824.21,103.41,793.05,58,757.2a685.12,685.12,0,0,0,35.34,65A333.62,333.62,0,0,0,204.21,932c323.67,195.65,656.53,56.21,779.5-201Z"/></g><g id="Shine"><path id="Lower-2" data-name="Lower" class="cls-6" d="M218.7,856.56a337.63,337.63,0,0,0,154.67,25c114.87-8.57,212.1-42.89,290.53-94.2a303.67,303.67,0,0,0,29.29-17.51c84-57.63,191.51-69,283.38-24.86,2.4-4.65,4.88-9.25,7.14-14l-7.89-3.69c-92.74-43.52-200.59-30.71-284.14,28.32a297.8,297.8,0,0,1-29,17.92C585,825.94,488.22,861.6,373.48,871.79a337.88,337.88,0,0,1-155-22.81C156.8,824.21,103.41,793.05,58,757.2c1.07,2.24,2.21,4.49,3.31,6.73C105.84,799.84,158.17,831.27,218.7,856.56Z"/><path id="Upper" class="cls-7" d="M1004.9,419.36l19.1-3.63C978.67,179,768.77,0,516.6,0a517.3,517.3,0,0,0-382,167.37A517.23,517.23,0,0,1,500.34,16.88C747.77,16.88,954.39,189.2,1004.9,419.36Z"/></g></g></g></g></svg>